<svg xmlns="http://www.w3.org/2000/svg" width="24" height="24" viewBox="0 0 24 24" fill="none" stroke="#4D724D" stroke-width="2" stroke-linecap="round" stroke-linejoin="round">
  <path d="M18 16.8a7.14 7.14 0 0 0 2.24-3.32A7.1 7.1 0 0 0 20 10V6a10 10 0 0 0-20 0v4a7.14 7.14 0 0 0 2.24 3.32A7 7 0 0 0 6 20a3 3 0 0 0 3-3h6a3 3 0 0 0 3 3 7 7 0 0 0 3.76-3.2"></path>
  <line x1="10" y1="10" x2="10" y2="10.01"></line>
  <line x1="14" y1="10" x2="14" y2="10.01"></line>
  <path d="M10 14a3.5 3.5 0 0 0 4 0"></path>
</svg>